<mxfile host="app.diagrams.net" agent="Mozilla/5.0 (Macintosh; Intel Mac OS X 10_15_7) AppleWebKit/537.36 (KHTML, like Gecko) Chrome/132.0.0.0 Safari/537.36" version="26.0.11">
  <diagram name="Page-1" id="03018318-947c-dd8e-b7a3-06fadd420f32">
    <mxGraphModel dx="1368" dy="867" grid="1" gridSize="10" guides="1" tooltips="1" connect="1" arrows="1" fold="1" page="1" pageScale="1" pageWidth="1100" pageHeight="850" background="none" math="0" shadow="0">
      <root>
        <mxCell id="0" />
        <mxCell id="1" parent="0" />
        <mxCell id="677b7b8949515195-1" value="" style="whiteSpace=wrap;html=1;rounded=0;shadow=0;labelBackgroundColor=none;strokeColor=#000000;strokeWidth=1;fillColor=none;fontFamily=Verdana;fontSize=12;fontColor=#000000;align=center;comic=1;" parent="1" vertex="1">
          <mxGeometry x="20" y="40" width="1060" height="790" as="geometry" />
        </mxCell>
        <mxCell id="ywKk5z_2qfM9JBNrJSl7-1" value="" style="rounded=0;whiteSpace=wrap;html=1;fillColor=none;" parent="1" vertex="1">
          <mxGeometry x="30" y="50" width="1040" height="140" as="geometry" />
        </mxCell>
        <mxCell id="zX-MKMj06BqSPDNbv460-1" value="&lt;font style=&quot;font-size: 18px;&quot;&gt;companyitassets/reports/hardwareassets/status&lt;/font&gt;" style="html=1;strokeWidth=1;shadow=0;dashed=0;shape=mxgraph.ios7ui.url;fillColor=#e0e0e0;strokeColor=#c0c0c0;buttonText=;strokeColor2=#222222;fontColor=#222222;fontSize=8;spacingTop=2;align=center;whiteSpace=wrap;" parent="1" vertex="1">
          <mxGeometry x="20" width="1050" height="32.5" as="geometry" />
        </mxCell>
        <mxCell id="ywKk5z_2qfM9JBNrJSl7-2" value="&lt;font style=&quot;font-size: 14px;&quot;&gt;From&lt;/font&gt;" style="fillColor=none;strokeColor=none;html=1;fontSize=12;fontStyle=0;align=left;fontColor=#596780;fontStyle=1;fontSize=11;sketch=1;hachureGap=4;pointerEvents=0;fontFamily=Helvetica;" parent="1" vertex="1">
          <mxGeometry x="40" y="50" width="40" height="25" as="geometry" />
        </mxCell>
        <mxCell id="ywKk5z_2qfM9JBNrJSl7-3" value="&lt;font style=&quot;font-size: 14px;&quot; face=&quot;Helvetica&quot;&gt;04-11-24&lt;/font&gt;" style="rounded=1;arcSize=9;fillColor=#F7F8F9;align=left;spacingLeft=5;strokeColor=#DEE1E6;html=1;strokeWidth=2;fontColor=#596780;fontSize=12;sketch=1;hachureGap=4;pointerEvents=0;fontFamily=Architects Daughter;fontSource=https%3A%2F%2Ffonts.googleapis.com%2Fcss%3Ffamily%3DArchitects%2BDaughter;" parent="1" vertex="1">
          <mxGeometry x="40" y="74.5" width="150" height="33" as="geometry" />
        </mxCell>
        <mxCell id="ywKk5z_2qfM9JBNrJSl7-4" value="" style="shape=mxgraph.gmdl.calendar;fillColor=#5A6881;strokeColor=none;sketch=0;hachureGap=4;pointerEvents=0;fontFamily=Architects Daughter;fontSource=https%3A%2F%2Ffonts.googleapis.com%2Fcss%3Ffamily%3DArchitects%2BDaughter;fontSize=20;" parent="ywKk5z_2qfM9JBNrJSl7-3" vertex="1">
          <mxGeometry x="1" y="0.5" width="18" height="18" relative="1" as="geometry">
            <mxPoint x="-29" y="-9" as="offset" />
          </mxGeometry>
        </mxCell>
        <mxCell id="ywKk5z_2qfM9JBNrJSl7-5" value="&lt;font style=&quot;font-size: 14px;&quot;&gt;To&lt;/font&gt;" style="fillColor=none;strokeColor=none;html=1;fontSize=12;fontStyle=0;align=left;fontColor=#596780;fontStyle=1;fontSize=11;sketch=1;hachureGap=4;pointerEvents=0;fontFamily=Helvetica;" parent="1" vertex="1">
          <mxGeometry x="40" y="109.5" width="20" height="25" as="geometry" />
        </mxCell>
        <mxCell id="ywKk5z_2qfM9JBNrJSl7-6" value="&lt;font style=&quot;font-size: 14px;&quot; face=&quot;Helvetica&quot;&gt;04-02-25&lt;/font&gt;" style="rounded=1;arcSize=9;fillColor=#F7F8F9;align=left;spacingLeft=5;strokeColor=#DEE1E6;html=1;strokeWidth=2;fontColor=#596780;fontSize=12;sketch=1;hachureGap=4;pointerEvents=0;fontFamily=Architects Daughter;fontSource=https%3A%2F%2Ffonts.googleapis.com%2Fcss%3Ffamily%3DArchitects%2BDaughter;" parent="1" vertex="1">
          <mxGeometry x="40" y="134.5" width="150" height="33" as="geometry" />
        </mxCell>
        <mxCell id="ywKk5z_2qfM9JBNrJSl7-7" value="" style="shape=mxgraph.gmdl.calendar;fillColor=#5A6881;strokeColor=none;sketch=0;hachureGap=4;pointerEvents=0;fontFamily=Architects Daughter;fontSource=https%3A%2F%2Ffonts.googleapis.com%2Fcss%3Ffamily%3DArchitects%2BDaughter;fontSize=20;" parent="ywKk5z_2qfM9JBNrJSl7-6" vertex="1">
          <mxGeometry x="1" y="0.5" width="18" height="18" relative="1" as="geometry">
            <mxPoint x="-29" y="-9" as="offset" />
          </mxGeometry>
        </mxCell>
        <mxCell id="ywKk5z_2qfM9JBNrJSl7-8" value="Apply" style="rounded=1;fillColor=#0057D8;strokeColor=none;html=1;whiteSpace=wrap;fontColor=#ffffff;align=center;verticalAlign=middle;fontStyle=0;fontSize=12;sketch=0;" parent="1" vertex="1">
          <mxGeometry x="502" y="103.5" width="86" height="33" as="geometry" />
        </mxCell>
        <mxCell id="ywKk5z_2qfM9JBNrJSl7-84" value="&lt;i&gt;&lt;font style=&quot;color: light-dark(rgb(0, 0, 0), rgb(125, 125, 125));&quot;&gt;The default date values are from: today minus 3 months, to: today&amp;nbsp;&lt;/font&gt;&lt;/i&gt;" style="text;html=1;align=left;verticalAlign=middle;whiteSpace=wrap;rounded=0;" parent="1" vertex="1">
          <mxGeometry x="30" y="160" width="360" height="30" as="geometry" />
        </mxCell>
        <mxCell id="N3RhH1qTN14WOQrYuTi2-1" value="" style="shape=table;startSize=0;container=1;collapsible=0;childLayout=tableLayout;strokeColor=default;fontSize=20;fontStyle=1;align=left;" parent="1" vertex="1">
          <mxGeometry x="30" y="200" width="1040" height="470" as="geometry" />
        </mxCell>
        <mxCell id="N3RhH1qTN14WOQrYuTi2-2" value="" style="shape=tableRow;horizontal=0;startSize=0;swimlaneHead=0;swimlaneBody=0;strokeColor=inherit;top=0;left=0;bottom=0;right=0;collapsible=0;dropTarget=0;fillColor=none;points=[[0,0.5],[1,0.5]];portConstraint=eastwest;fontSize=16;" parent="N3RhH1qTN14WOQrYuTi2-1" vertex="1">
          <mxGeometry width="1040" height="43" as="geometry" />
        </mxCell>
        <mxCell id="N3RhH1qTN14WOQrYuTi2-3" value="&lt;b&gt;Asset Type&lt;/b&gt;" style="shape=partialRectangle;html=1;whiteSpace=wrap;connectable=0;strokeColor=#6c8ebf;overflow=hidden;fillColor=#dae8fc;top=0;left=0;bottom=0;right=0;pointerEvents=1;fontSize=16;" parent="N3RhH1qTN14WOQrYuTi2-2" vertex="1">
          <mxGeometry width="207" height="43" as="geometry">
            <mxRectangle width="207" height="43" as="alternateBounds" />
          </mxGeometry>
        </mxCell>
        <mxCell id="N3RhH1qTN14WOQrYuTi2-4" value="&lt;b&gt;Number of Assets&lt;/b&gt;" style="shape=partialRectangle;html=1;whiteSpace=wrap;connectable=0;strokeColor=#6c8ebf;overflow=hidden;fillColor=#dae8fc;top=0;left=0;bottom=0;right=0;pointerEvents=1;fontSize=16;" parent="N3RhH1qTN14WOQrYuTi2-2" vertex="1">
          <mxGeometry x="207" width="208" height="43" as="geometry">
            <mxRectangle width="208" height="43" as="alternateBounds" />
          </mxGeometry>
        </mxCell>
        <mxCell id="5-9rWO7Yp7zlaf-fWA8S-1" value="&lt;b&gt;In Use&lt;/b&gt;" style="shape=partialRectangle;html=1;whiteSpace=wrap;connectable=0;strokeColor=#6c8ebf;overflow=hidden;fillColor=#dae8fc;top=0;left=0;bottom=0;right=0;pointerEvents=1;fontSize=16;" parent="N3RhH1qTN14WOQrYuTi2-2" vertex="1">
          <mxGeometry x="415" width="208" height="43" as="geometry">
            <mxRectangle width="208" height="43" as="alternateBounds" />
          </mxGeometry>
        </mxCell>
        <mxCell id="5-9rWO7Yp7zlaf-fWA8S-12" value="&lt;b&gt;Storage&lt;/b&gt;" style="shape=partialRectangle;html=1;whiteSpace=wrap;connectable=0;strokeColor=#6c8ebf;overflow=hidden;fillColor=#dae8fc;top=0;left=0;bottom=0;right=0;pointerEvents=1;fontSize=16;" parent="N3RhH1qTN14WOQrYuTi2-2" vertex="1">
          <mxGeometry x="623" width="209" height="43" as="geometry">
            <mxRectangle width="209" height="43" as="alternateBounds" />
          </mxGeometry>
        </mxCell>
        <mxCell id="5-9rWO7Yp7zlaf-fWA8S-23" value="&lt;b&gt;Repair&lt;/b&gt;" style="shape=partialRectangle;html=1;whiteSpace=wrap;connectable=0;strokeColor=#6c8ebf;overflow=hidden;fillColor=#dae8fc;top=0;left=0;bottom=0;right=0;pointerEvents=1;fontSize=16;" parent="N3RhH1qTN14WOQrYuTi2-2" vertex="1">
          <mxGeometry x="832" width="208" height="43" as="geometry">
            <mxRectangle width="208" height="43" as="alternateBounds" />
          </mxGeometry>
        </mxCell>
        <mxCell id="N3RhH1qTN14WOQrYuTi2-6" value="" style="shape=tableRow;horizontal=0;startSize=0;swimlaneHead=0;swimlaneBody=0;strokeColor=inherit;top=0;left=0;bottom=0;right=0;collapsible=0;dropTarget=0;fillColor=none;points=[[0,0.5],[1,0.5]];portConstraint=eastwest;fontSize=16;" parent="N3RhH1qTN14WOQrYuTi2-1" vertex="1">
          <mxGeometry y="43" width="1040" height="42" as="geometry" />
        </mxCell>
        <mxCell id="N3RhH1qTN14WOQrYuTi2-7" value="Card Reader" style="shape=partialRectangle;html=1;whiteSpace=wrap;connectable=0;strokeColor=inherit;overflow=hidden;fillColor=none;top=0;left=0;bottom=0;right=0;pointerEvents=1;fontSize=16;" parent="N3RhH1qTN14WOQrYuTi2-6" vertex="1">
          <mxGeometry width="207" height="42" as="geometry">
            <mxRectangle width="207" height="42" as="alternateBounds" />
          </mxGeometry>
        </mxCell>
        <mxCell id="N3RhH1qTN14WOQrYuTi2-8" value="4" style="shape=partialRectangle;html=1;whiteSpace=wrap;connectable=0;strokeColor=inherit;overflow=hidden;fillColor=none;top=0;left=0;bottom=0;right=0;pointerEvents=1;fontSize=16;" parent="N3RhH1qTN14WOQrYuTi2-6" vertex="1">
          <mxGeometry x="207" width="208" height="42" as="geometry">
            <mxRectangle width="208" height="42" as="alternateBounds" />
          </mxGeometry>
        </mxCell>
        <mxCell id="5-9rWO7Yp7zlaf-fWA8S-2" value="4" style="shape=partialRectangle;html=1;whiteSpace=wrap;connectable=0;strokeColor=inherit;overflow=hidden;fillColor=none;top=0;left=0;bottom=0;right=0;pointerEvents=1;fontSize=16;" parent="N3RhH1qTN14WOQrYuTi2-6" vertex="1">
          <mxGeometry x="415" width="208" height="42" as="geometry">
            <mxRectangle width="208" height="42" as="alternateBounds" />
          </mxGeometry>
        </mxCell>
        <mxCell id="5-9rWO7Yp7zlaf-fWA8S-13" value="0" style="shape=partialRectangle;html=1;whiteSpace=wrap;connectable=0;strokeColor=inherit;overflow=hidden;fillColor=none;top=0;left=0;bottom=0;right=0;pointerEvents=1;fontSize=16;" parent="N3RhH1qTN14WOQrYuTi2-6" vertex="1">
          <mxGeometry x="623" width="209" height="42" as="geometry">
            <mxRectangle width="209" height="42" as="alternateBounds" />
          </mxGeometry>
        </mxCell>
        <mxCell id="5-9rWO7Yp7zlaf-fWA8S-24" value="0" style="shape=partialRectangle;html=1;whiteSpace=wrap;connectable=0;strokeColor=inherit;overflow=hidden;fillColor=none;top=0;left=0;bottom=0;right=0;pointerEvents=1;fontSize=16;" parent="N3RhH1qTN14WOQrYuTi2-6" vertex="1">
          <mxGeometry x="832" width="208" height="42" as="geometry">
            <mxRectangle width="208" height="42" as="alternateBounds" />
          </mxGeometry>
        </mxCell>
        <mxCell id="N3RhH1qTN14WOQrYuTi2-10" value="" style="shape=tableRow;horizontal=0;startSize=0;swimlaneHead=0;swimlaneBody=0;strokeColor=inherit;top=0;left=0;bottom=0;right=0;collapsible=0;dropTarget=0;fillColor=none;points=[[0,0.5],[1,0.5]];portConstraint=eastwest;fontSize=16;" parent="N3RhH1qTN14WOQrYuTi2-1" vertex="1">
          <mxGeometry y="85" width="1040" height="43" as="geometry" />
        </mxCell>
        <mxCell id="N3RhH1qTN14WOQrYuTi2-11" value="Laptop" style="shape=partialRectangle;html=1;whiteSpace=wrap;connectable=0;strokeColor=inherit;overflow=hidden;fillColor=none;top=0;left=0;bottom=0;right=0;pointerEvents=1;fontSize=16;" parent="N3RhH1qTN14WOQrYuTi2-10" vertex="1">
          <mxGeometry width="207" height="43" as="geometry">
            <mxRectangle width="207" height="43" as="alternateBounds" />
          </mxGeometry>
        </mxCell>
        <mxCell id="N3RhH1qTN14WOQrYuTi2-12" value="5" style="shape=partialRectangle;html=1;whiteSpace=wrap;connectable=0;strokeColor=inherit;overflow=hidden;fillColor=none;top=0;left=0;bottom=0;right=0;pointerEvents=1;fontSize=16;" parent="N3RhH1qTN14WOQrYuTi2-10" vertex="1">
          <mxGeometry x="207" width="208" height="43" as="geometry">
            <mxRectangle width="208" height="43" as="alternateBounds" />
          </mxGeometry>
        </mxCell>
        <mxCell id="5-9rWO7Yp7zlaf-fWA8S-3" value="4" style="shape=partialRectangle;html=1;whiteSpace=wrap;connectable=0;strokeColor=inherit;overflow=hidden;fillColor=none;top=0;left=0;bottom=0;right=0;pointerEvents=1;fontSize=16;" parent="N3RhH1qTN14WOQrYuTi2-10" vertex="1">
          <mxGeometry x="415" width="208" height="43" as="geometry">
            <mxRectangle width="208" height="43" as="alternateBounds" />
          </mxGeometry>
        </mxCell>
        <mxCell id="5-9rWO7Yp7zlaf-fWA8S-14" value="0" style="shape=partialRectangle;html=1;whiteSpace=wrap;connectable=0;strokeColor=inherit;overflow=hidden;fillColor=none;top=0;left=0;bottom=0;right=0;pointerEvents=1;fontSize=16;" parent="N3RhH1qTN14WOQrYuTi2-10" vertex="1">
          <mxGeometry x="623" width="209" height="43" as="geometry">
            <mxRectangle width="209" height="43" as="alternateBounds" />
          </mxGeometry>
        </mxCell>
        <mxCell id="5-9rWO7Yp7zlaf-fWA8S-25" value="1" style="shape=partialRectangle;html=1;whiteSpace=wrap;connectable=0;strokeColor=inherit;overflow=hidden;fillColor=none;top=0;left=0;bottom=0;right=0;pointerEvents=1;fontSize=16;" parent="N3RhH1qTN14WOQrYuTi2-10" vertex="1">
          <mxGeometry x="832" width="208" height="43" as="geometry">
            <mxRectangle width="208" height="43" as="alternateBounds" />
          </mxGeometry>
        </mxCell>
        <mxCell id="N3RhH1qTN14WOQrYuTi2-14" style="shape=tableRow;horizontal=0;startSize=0;swimlaneHead=0;swimlaneBody=0;strokeColor=inherit;top=0;left=0;bottom=0;right=0;collapsible=0;dropTarget=0;fillColor=none;points=[[0,0.5],[1,0.5]];portConstraint=eastwest;fontSize=16;" parent="N3RhH1qTN14WOQrYuTi2-1" vertex="1">
          <mxGeometry y="128" width="1040" height="43" as="geometry" />
        </mxCell>
        <mxCell id="N3RhH1qTN14WOQrYuTi2-15" value="Mobile Phone" style="shape=partialRectangle;html=1;whiteSpace=wrap;connectable=0;strokeColor=inherit;overflow=hidden;fillColor=none;top=0;left=0;bottom=0;right=0;pointerEvents=1;fontSize=16;" parent="N3RhH1qTN14WOQrYuTi2-14" vertex="1">
          <mxGeometry width="207" height="43" as="geometry">
            <mxRectangle width="207" height="43" as="alternateBounds" />
          </mxGeometry>
        </mxCell>
        <mxCell id="N3RhH1qTN14WOQrYuTi2-16" value="3" style="shape=partialRectangle;html=1;whiteSpace=wrap;connectable=0;strokeColor=inherit;overflow=hidden;fillColor=none;top=0;left=0;bottom=0;right=0;pointerEvents=1;fontSize=16;" parent="N3RhH1qTN14WOQrYuTi2-14" vertex="1">
          <mxGeometry x="207" width="208" height="43" as="geometry">
            <mxRectangle width="208" height="43" as="alternateBounds" />
          </mxGeometry>
        </mxCell>
        <mxCell id="5-9rWO7Yp7zlaf-fWA8S-4" value="3" style="shape=partialRectangle;html=1;whiteSpace=wrap;connectable=0;strokeColor=inherit;overflow=hidden;fillColor=none;top=0;left=0;bottom=0;right=0;pointerEvents=1;fontSize=16;" parent="N3RhH1qTN14WOQrYuTi2-14" vertex="1">
          <mxGeometry x="415" width="208" height="43" as="geometry">
            <mxRectangle width="208" height="43" as="alternateBounds" />
          </mxGeometry>
        </mxCell>
        <mxCell id="5-9rWO7Yp7zlaf-fWA8S-15" value="0" style="shape=partialRectangle;html=1;whiteSpace=wrap;connectable=0;strokeColor=inherit;overflow=hidden;fillColor=none;top=0;left=0;bottom=0;right=0;pointerEvents=1;fontSize=16;" parent="N3RhH1qTN14WOQrYuTi2-14" vertex="1">
          <mxGeometry x="623" width="209" height="43" as="geometry">
            <mxRectangle width="209" height="43" as="alternateBounds" />
          </mxGeometry>
        </mxCell>
        <mxCell id="5-9rWO7Yp7zlaf-fWA8S-26" value="0" style="shape=partialRectangle;html=1;whiteSpace=wrap;connectable=0;strokeColor=inherit;overflow=hidden;fillColor=none;top=0;left=0;bottom=0;right=0;pointerEvents=1;fontSize=16;" parent="N3RhH1qTN14WOQrYuTi2-14" vertex="1">
          <mxGeometry x="832" width="208" height="43" as="geometry">
            <mxRectangle width="208" height="43" as="alternateBounds" />
          </mxGeometry>
        </mxCell>
        <mxCell id="N3RhH1qTN14WOQrYuTi2-17" style="shape=tableRow;horizontal=0;startSize=0;swimlaneHead=0;swimlaneBody=0;strokeColor=inherit;top=0;left=0;bottom=0;right=0;collapsible=0;dropTarget=0;fillColor=none;points=[[0,0.5],[1,0.5]];portConstraint=eastwest;fontSize=16;" parent="N3RhH1qTN14WOQrYuTi2-1" vertex="1">
          <mxGeometry y="171" width="1040" height="43" as="geometry" />
        </mxCell>
        <mxCell id="N3RhH1qTN14WOQrYuTi2-18" value="Monitor" style="shape=partialRectangle;html=1;whiteSpace=wrap;connectable=0;strokeColor=inherit;overflow=hidden;fillColor=none;top=0;left=0;bottom=0;right=0;pointerEvents=1;fontSize=16;" parent="N3RhH1qTN14WOQrYuTi2-17" vertex="1">
          <mxGeometry width="207" height="43" as="geometry">
            <mxRectangle width="207" height="43" as="alternateBounds" />
          </mxGeometry>
        </mxCell>
        <mxCell id="N3RhH1qTN14WOQrYuTi2-19" value="8" style="shape=partialRectangle;html=1;whiteSpace=wrap;connectable=0;strokeColor=inherit;overflow=hidden;fillColor=none;top=0;left=0;bottom=0;right=0;pointerEvents=1;fontSize=16;" parent="N3RhH1qTN14WOQrYuTi2-17" vertex="1">
          <mxGeometry x="207" width="208" height="43" as="geometry">
            <mxRectangle width="208" height="43" as="alternateBounds" />
          </mxGeometry>
        </mxCell>
        <mxCell id="5-9rWO7Yp7zlaf-fWA8S-5" value="8" style="shape=partialRectangle;html=1;whiteSpace=wrap;connectable=0;strokeColor=inherit;overflow=hidden;fillColor=none;top=0;left=0;bottom=0;right=0;pointerEvents=1;fontSize=16;" parent="N3RhH1qTN14WOQrYuTi2-17" vertex="1">
          <mxGeometry x="415" width="208" height="43" as="geometry">
            <mxRectangle width="208" height="43" as="alternateBounds" />
          </mxGeometry>
        </mxCell>
        <mxCell id="5-9rWO7Yp7zlaf-fWA8S-16" value="0" style="shape=partialRectangle;html=1;whiteSpace=wrap;connectable=0;strokeColor=inherit;overflow=hidden;fillColor=none;top=0;left=0;bottom=0;right=0;pointerEvents=1;fontSize=16;" parent="N3RhH1qTN14WOQrYuTi2-17" vertex="1">
          <mxGeometry x="623" width="209" height="43" as="geometry">
            <mxRectangle width="209" height="43" as="alternateBounds" />
          </mxGeometry>
        </mxCell>
        <mxCell id="5-9rWO7Yp7zlaf-fWA8S-27" value="0" style="shape=partialRectangle;html=1;whiteSpace=wrap;connectable=0;strokeColor=inherit;overflow=hidden;fillColor=none;top=0;left=0;bottom=0;right=0;pointerEvents=1;fontSize=16;" parent="N3RhH1qTN14WOQrYuTi2-17" vertex="1">
          <mxGeometry x="832" width="208" height="43" as="geometry">
            <mxRectangle width="208" height="43" as="alternateBounds" />
          </mxGeometry>
        </mxCell>
        <mxCell id="N3RhH1qTN14WOQrYuTi2-20" style="shape=tableRow;horizontal=0;startSize=0;swimlaneHead=0;swimlaneBody=0;strokeColor=inherit;top=0;left=0;bottom=0;right=0;collapsible=0;dropTarget=0;fillColor=none;points=[[0,0.5],[1,0.5]];portConstraint=eastwest;fontSize=16;" parent="N3RhH1qTN14WOQrYuTi2-1" vertex="1">
          <mxGeometry y="214" width="1040" height="42" as="geometry" />
        </mxCell>
        <mxCell id="N3RhH1qTN14WOQrYuTi2-21" value="Mouse" style="shape=partialRectangle;html=1;whiteSpace=wrap;connectable=0;strokeColor=inherit;overflow=hidden;fillColor=none;top=0;left=0;bottom=0;right=0;pointerEvents=1;fontSize=16;" parent="N3RhH1qTN14WOQrYuTi2-20" vertex="1">
          <mxGeometry width="207" height="42" as="geometry">
            <mxRectangle width="207" height="42" as="alternateBounds" />
          </mxGeometry>
        </mxCell>
        <mxCell id="N3RhH1qTN14WOQrYuTi2-22" value="8" style="shape=partialRectangle;html=1;whiteSpace=wrap;connectable=0;strokeColor=inherit;overflow=hidden;fillColor=none;top=0;left=0;bottom=0;right=0;pointerEvents=1;fontSize=16;" parent="N3RhH1qTN14WOQrYuTi2-20" vertex="1">
          <mxGeometry x="207" width="208" height="42" as="geometry">
            <mxRectangle width="208" height="42" as="alternateBounds" />
          </mxGeometry>
        </mxCell>
        <mxCell id="5-9rWO7Yp7zlaf-fWA8S-6" value="6" style="shape=partialRectangle;html=1;whiteSpace=wrap;connectable=0;strokeColor=inherit;overflow=hidden;fillColor=none;top=0;left=0;bottom=0;right=0;pointerEvents=1;fontSize=16;" parent="N3RhH1qTN14WOQrYuTi2-20" vertex="1">
          <mxGeometry x="415" width="208" height="42" as="geometry">
            <mxRectangle width="208" height="42" as="alternateBounds" />
          </mxGeometry>
        </mxCell>
        <mxCell id="5-9rWO7Yp7zlaf-fWA8S-17" value="2" style="shape=partialRectangle;html=1;whiteSpace=wrap;connectable=0;strokeColor=inherit;overflow=hidden;fillColor=none;top=0;left=0;bottom=0;right=0;pointerEvents=1;fontSize=16;" parent="N3RhH1qTN14WOQrYuTi2-20" vertex="1">
          <mxGeometry x="623" width="209" height="42" as="geometry">
            <mxRectangle width="209" height="42" as="alternateBounds" />
          </mxGeometry>
        </mxCell>
        <mxCell id="5-9rWO7Yp7zlaf-fWA8S-28" value="0" style="shape=partialRectangle;html=1;whiteSpace=wrap;connectable=0;strokeColor=inherit;overflow=hidden;fillColor=none;top=0;left=0;bottom=0;right=0;pointerEvents=1;fontSize=16;" parent="N3RhH1qTN14WOQrYuTi2-20" vertex="1">
          <mxGeometry x="832" width="208" height="42" as="geometry">
            <mxRectangle width="208" height="42" as="alternateBounds" />
          </mxGeometry>
        </mxCell>
        <mxCell id="N3RhH1qTN14WOQrYuTi2-23" style="shape=tableRow;horizontal=0;startSize=0;swimlaneHead=0;swimlaneBody=0;strokeColor=inherit;top=0;left=0;bottom=0;right=0;collapsible=0;dropTarget=0;fillColor=none;points=[[0,0.5],[1,0.5]];portConstraint=eastwest;fontSize=16;" parent="N3RhH1qTN14WOQrYuTi2-1" vertex="1">
          <mxGeometry y="256" width="1040" height="43" as="geometry" />
        </mxCell>
        <mxCell id="N3RhH1qTN14WOQrYuTi2-24" value="Keyboard" style="shape=partialRectangle;html=1;whiteSpace=wrap;connectable=0;strokeColor=inherit;overflow=hidden;fillColor=none;top=0;left=0;bottom=0;right=0;pointerEvents=1;fontSize=16;" parent="N3RhH1qTN14WOQrYuTi2-23" vertex="1">
          <mxGeometry width="207" height="43" as="geometry">
            <mxRectangle width="207" height="43" as="alternateBounds" />
          </mxGeometry>
        </mxCell>
        <mxCell id="N3RhH1qTN14WOQrYuTi2-25" value="9" style="shape=partialRectangle;html=1;whiteSpace=wrap;connectable=0;strokeColor=inherit;overflow=hidden;fillColor=none;top=0;left=0;bottom=0;right=0;pointerEvents=1;fontSize=16;" parent="N3RhH1qTN14WOQrYuTi2-23" vertex="1">
          <mxGeometry x="207" width="208" height="43" as="geometry">
            <mxRectangle width="208" height="43" as="alternateBounds" />
          </mxGeometry>
        </mxCell>
        <mxCell id="5-9rWO7Yp7zlaf-fWA8S-7" value="8" style="shape=partialRectangle;html=1;whiteSpace=wrap;connectable=0;strokeColor=inherit;overflow=hidden;fillColor=none;top=0;left=0;bottom=0;right=0;pointerEvents=1;fontSize=16;" parent="N3RhH1qTN14WOQrYuTi2-23" vertex="1">
          <mxGeometry x="415" width="208" height="43" as="geometry">
            <mxRectangle width="208" height="43" as="alternateBounds" />
          </mxGeometry>
        </mxCell>
        <mxCell id="5-9rWO7Yp7zlaf-fWA8S-18" value="1" style="shape=partialRectangle;html=1;whiteSpace=wrap;connectable=0;strokeColor=inherit;overflow=hidden;fillColor=none;top=0;left=0;bottom=0;right=0;pointerEvents=1;fontSize=16;" parent="N3RhH1qTN14WOQrYuTi2-23" vertex="1">
          <mxGeometry x="623" width="209" height="43" as="geometry">
            <mxRectangle width="209" height="43" as="alternateBounds" />
          </mxGeometry>
        </mxCell>
        <mxCell id="5-9rWO7Yp7zlaf-fWA8S-29" value="0" style="shape=partialRectangle;html=1;whiteSpace=wrap;connectable=0;strokeColor=inherit;overflow=hidden;fillColor=none;top=0;left=0;bottom=0;right=0;pointerEvents=1;fontSize=16;" parent="N3RhH1qTN14WOQrYuTi2-23" vertex="1">
          <mxGeometry x="832" width="208" height="43" as="geometry">
            <mxRectangle width="208" height="43" as="alternateBounds" />
          </mxGeometry>
        </mxCell>
        <mxCell id="N3RhH1qTN14WOQrYuTi2-26" style="shape=tableRow;horizontal=0;startSize=0;swimlaneHead=0;swimlaneBody=0;strokeColor=inherit;top=0;left=0;bottom=0;right=0;collapsible=0;dropTarget=0;fillColor=none;points=[[0,0.5],[1,0.5]];portConstraint=eastwest;fontSize=16;" parent="N3RhH1qTN14WOQrYuTi2-1" vertex="1">
          <mxGeometry y="299" width="1040" height="43" as="geometry" />
        </mxCell>
        <mxCell id="N3RhH1qTN14WOQrYuTi2-27" value="PC" style="shape=partialRectangle;html=1;whiteSpace=wrap;connectable=0;strokeColor=inherit;overflow=hidden;fillColor=none;top=0;left=0;bottom=0;right=0;pointerEvents=1;fontSize=16;" parent="N3RhH1qTN14WOQrYuTi2-26" vertex="1">
          <mxGeometry width="207" height="43" as="geometry">
            <mxRectangle width="207" height="43" as="alternateBounds" />
          </mxGeometry>
        </mxCell>
        <mxCell id="N3RhH1qTN14WOQrYuTi2-28" value="10" style="shape=partialRectangle;html=1;whiteSpace=wrap;connectable=0;strokeColor=inherit;overflow=hidden;fillColor=none;top=0;left=0;bottom=0;right=0;pointerEvents=1;fontSize=16;" parent="N3RhH1qTN14WOQrYuTi2-26" vertex="1">
          <mxGeometry x="207" width="208" height="43" as="geometry">
            <mxRectangle width="208" height="43" as="alternateBounds" />
          </mxGeometry>
        </mxCell>
        <mxCell id="5-9rWO7Yp7zlaf-fWA8S-8" value="8" style="shape=partialRectangle;html=1;whiteSpace=wrap;connectable=0;strokeColor=inherit;overflow=hidden;fillColor=none;top=0;left=0;bottom=0;right=0;pointerEvents=1;fontSize=16;" parent="N3RhH1qTN14WOQrYuTi2-26" vertex="1">
          <mxGeometry x="415" width="208" height="43" as="geometry">
            <mxRectangle width="208" height="43" as="alternateBounds" />
          </mxGeometry>
        </mxCell>
        <mxCell id="5-9rWO7Yp7zlaf-fWA8S-19" value="1" style="shape=partialRectangle;html=1;whiteSpace=wrap;connectable=0;strokeColor=inherit;overflow=hidden;fillColor=none;top=0;left=0;bottom=0;right=0;pointerEvents=1;fontSize=16;" parent="N3RhH1qTN14WOQrYuTi2-26" vertex="1">
          <mxGeometry x="623" width="209" height="43" as="geometry">
            <mxRectangle width="209" height="43" as="alternateBounds" />
          </mxGeometry>
        </mxCell>
        <mxCell id="5-9rWO7Yp7zlaf-fWA8S-30" value="1" style="shape=partialRectangle;html=1;whiteSpace=wrap;connectable=0;strokeColor=inherit;overflow=hidden;fillColor=none;top=0;left=0;bottom=0;right=0;pointerEvents=1;fontSize=16;" parent="N3RhH1qTN14WOQrYuTi2-26" vertex="1">
          <mxGeometry x="832" width="208" height="43" as="geometry">
            <mxRectangle width="208" height="43" as="alternateBounds" />
          </mxGeometry>
        </mxCell>
        <mxCell id="N3RhH1qTN14WOQrYuTi2-29" style="shape=tableRow;horizontal=0;startSize=0;swimlaneHead=0;swimlaneBody=0;strokeColor=inherit;top=0;left=0;bottom=0;right=0;collapsible=0;dropTarget=0;fillColor=none;points=[[0,0.5],[1,0.5]];portConstraint=eastwest;fontSize=16;" parent="N3RhH1qTN14WOQrYuTi2-1" vertex="1">
          <mxGeometry y="342" width="1040" height="43" as="geometry" />
        </mxCell>
        <mxCell id="N3RhH1qTN14WOQrYuTi2-30" value="Printer" style="shape=partialRectangle;html=1;whiteSpace=wrap;connectable=0;strokeColor=inherit;overflow=hidden;fillColor=none;top=0;left=0;bottom=0;right=0;pointerEvents=1;fontSize=16;" parent="N3RhH1qTN14WOQrYuTi2-29" vertex="1">
          <mxGeometry width="207" height="43" as="geometry">
            <mxRectangle width="207" height="43" as="alternateBounds" />
          </mxGeometry>
        </mxCell>
        <mxCell id="N3RhH1qTN14WOQrYuTi2-31" value="3" style="shape=partialRectangle;html=1;whiteSpace=wrap;connectable=0;strokeColor=inherit;overflow=hidden;fillColor=none;top=0;left=0;bottom=0;right=0;pointerEvents=1;fontSize=16;" parent="N3RhH1qTN14WOQrYuTi2-29" vertex="1">
          <mxGeometry x="207" width="208" height="43" as="geometry">
            <mxRectangle width="208" height="43" as="alternateBounds" />
          </mxGeometry>
        </mxCell>
        <mxCell id="5-9rWO7Yp7zlaf-fWA8S-9" value="3" style="shape=partialRectangle;html=1;whiteSpace=wrap;connectable=0;strokeColor=inherit;overflow=hidden;fillColor=none;top=0;left=0;bottom=0;right=0;pointerEvents=1;fontSize=16;" parent="N3RhH1qTN14WOQrYuTi2-29" vertex="1">
          <mxGeometry x="415" width="208" height="43" as="geometry">
            <mxRectangle width="208" height="43" as="alternateBounds" />
          </mxGeometry>
        </mxCell>
        <mxCell id="5-9rWO7Yp7zlaf-fWA8S-20" value="0" style="shape=partialRectangle;html=1;whiteSpace=wrap;connectable=0;strokeColor=inherit;overflow=hidden;fillColor=none;top=0;left=0;bottom=0;right=0;pointerEvents=1;fontSize=16;" parent="N3RhH1qTN14WOQrYuTi2-29" vertex="1">
          <mxGeometry x="623" width="209" height="43" as="geometry">
            <mxRectangle width="209" height="43" as="alternateBounds" />
          </mxGeometry>
        </mxCell>
        <mxCell id="5-9rWO7Yp7zlaf-fWA8S-31" value="0" style="shape=partialRectangle;html=1;whiteSpace=wrap;connectable=0;strokeColor=inherit;overflow=hidden;fillColor=none;top=0;left=0;bottom=0;right=0;pointerEvents=1;fontSize=16;" parent="N3RhH1qTN14WOQrYuTi2-29" vertex="1">
          <mxGeometry x="832" width="208" height="43" as="geometry">
            <mxRectangle width="208" height="43" as="alternateBounds" />
          </mxGeometry>
        </mxCell>
        <mxCell id="N3RhH1qTN14WOQrYuTi2-32" style="shape=tableRow;horizontal=0;startSize=0;swimlaneHead=0;swimlaneBody=0;strokeColor=inherit;top=0;left=0;bottom=0;right=0;collapsible=0;dropTarget=0;fillColor=none;points=[[0,0.5],[1,0.5]];portConstraint=eastwest;fontSize=16;" parent="N3RhH1qTN14WOQrYuTi2-1" vertex="1">
          <mxGeometry y="385" width="1040" height="42" as="geometry" />
        </mxCell>
        <mxCell id="N3RhH1qTN14WOQrYuTi2-33" value="Stationary Telephone" style="shape=partialRectangle;html=1;whiteSpace=wrap;connectable=0;strokeColor=inherit;overflow=hidden;fillColor=none;top=0;left=0;bottom=0;right=0;pointerEvents=1;fontSize=16;" parent="N3RhH1qTN14WOQrYuTi2-32" vertex="1">
          <mxGeometry width="207" height="42" as="geometry">
            <mxRectangle width="207" height="42" as="alternateBounds" />
          </mxGeometry>
        </mxCell>
        <mxCell id="N3RhH1qTN14WOQrYuTi2-34" value="3" style="shape=partialRectangle;html=1;whiteSpace=wrap;connectable=0;strokeColor=inherit;overflow=hidden;fillColor=none;top=0;left=0;bottom=0;right=0;pointerEvents=1;fontSize=16;" parent="N3RhH1qTN14WOQrYuTi2-32" vertex="1">
          <mxGeometry x="207" width="208" height="42" as="geometry">
            <mxRectangle width="208" height="42" as="alternateBounds" />
          </mxGeometry>
        </mxCell>
        <mxCell id="5-9rWO7Yp7zlaf-fWA8S-10" value="3" style="shape=partialRectangle;html=1;whiteSpace=wrap;connectable=0;strokeColor=inherit;overflow=hidden;fillColor=none;top=0;left=0;bottom=0;right=0;pointerEvents=1;fontSize=16;" parent="N3RhH1qTN14WOQrYuTi2-32" vertex="1">
          <mxGeometry x="415" width="208" height="42" as="geometry">
            <mxRectangle width="208" height="42" as="alternateBounds" />
          </mxGeometry>
        </mxCell>
        <mxCell id="5-9rWO7Yp7zlaf-fWA8S-21" value="0" style="shape=partialRectangle;html=1;whiteSpace=wrap;connectable=0;strokeColor=inherit;overflow=hidden;fillColor=none;top=0;left=0;bottom=0;right=0;pointerEvents=1;fontSize=16;" parent="N3RhH1qTN14WOQrYuTi2-32" vertex="1">
          <mxGeometry x="623" width="209" height="42" as="geometry">
            <mxRectangle width="209" height="42" as="alternateBounds" />
          </mxGeometry>
        </mxCell>
        <mxCell id="5-9rWO7Yp7zlaf-fWA8S-32" value="0" style="shape=partialRectangle;html=1;whiteSpace=wrap;connectable=0;strokeColor=inherit;overflow=hidden;fillColor=none;top=0;left=0;bottom=0;right=0;pointerEvents=1;fontSize=16;" parent="N3RhH1qTN14WOQrYuTi2-32" vertex="1">
          <mxGeometry x="832" width="208" height="42" as="geometry">
            <mxRectangle width="208" height="42" as="alternateBounds" />
          </mxGeometry>
        </mxCell>
        <mxCell id="N3RhH1qTN14WOQrYuTi2-35" style="shape=tableRow;horizontal=0;startSize=0;swimlaneHead=0;swimlaneBody=0;strokeColor=inherit;top=0;left=0;bottom=0;right=0;collapsible=0;dropTarget=0;fillColor=none;points=[[0,0.5],[1,0.5]];portConstraint=eastwest;fontSize=16;" parent="N3RhH1qTN14WOQrYuTi2-1" vertex="1">
          <mxGeometry y="427" width="1040" height="43" as="geometry" />
        </mxCell>
        <mxCell id="N3RhH1qTN14WOQrYuTi2-36" value="Tablet" style="shape=partialRectangle;html=1;whiteSpace=wrap;connectable=0;strokeColor=inherit;overflow=hidden;fillColor=none;top=0;left=0;bottom=0;right=0;pointerEvents=1;fontSize=16;" parent="N3RhH1qTN14WOQrYuTi2-35" vertex="1">
          <mxGeometry width="207" height="43" as="geometry">
            <mxRectangle width="207" height="43" as="alternateBounds" />
          </mxGeometry>
        </mxCell>
        <mxCell id="N3RhH1qTN14WOQrYuTi2-37" value="4" style="shape=partialRectangle;html=1;whiteSpace=wrap;connectable=0;strokeColor=inherit;overflow=hidden;fillColor=none;top=0;left=0;bottom=0;right=0;pointerEvents=1;fontSize=16;" parent="N3RhH1qTN14WOQrYuTi2-35" vertex="1">
          <mxGeometry x="207" width="208" height="43" as="geometry">
            <mxRectangle width="208" height="43" as="alternateBounds" />
          </mxGeometry>
        </mxCell>
        <mxCell id="5-9rWO7Yp7zlaf-fWA8S-11" value="3" style="shape=partialRectangle;html=1;whiteSpace=wrap;connectable=0;strokeColor=inherit;overflow=hidden;fillColor=none;top=0;left=0;bottom=0;right=0;pointerEvents=1;fontSize=16;" parent="N3RhH1qTN14WOQrYuTi2-35" vertex="1">
          <mxGeometry x="415" width="208" height="43" as="geometry">
            <mxRectangle width="208" height="43" as="alternateBounds" />
          </mxGeometry>
        </mxCell>
        <mxCell id="5-9rWO7Yp7zlaf-fWA8S-22" value="0" style="shape=partialRectangle;html=1;whiteSpace=wrap;connectable=0;strokeColor=inherit;overflow=hidden;fillColor=none;top=0;left=0;bottom=0;right=0;pointerEvents=1;fontSize=16;" parent="N3RhH1qTN14WOQrYuTi2-35" vertex="1">
          <mxGeometry x="623" width="209" height="43" as="geometry">
            <mxRectangle width="209" height="43" as="alternateBounds" />
          </mxGeometry>
        </mxCell>
        <mxCell id="5-9rWO7Yp7zlaf-fWA8S-33" value="1" style="shape=partialRectangle;html=1;whiteSpace=wrap;connectable=0;strokeColor=inherit;overflow=hidden;fillColor=none;top=0;left=0;bottom=0;right=0;pointerEvents=1;fontSize=16;" parent="N3RhH1qTN14WOQrYuTi2-35" vertex="1">
          <mxGeometry x="832" width="208" height="43" as="geometry">
            <mxRectangle width="208" height="43" as="alternateBounds" />
          </mxGeometry>
        </mxCell>
        <mxCell id="N3RhH1qTN14WOQrYuTi2-80" value="Location" style="text;html=1;align=left;verticalAlign=middle;whiteSpace=wrap;rounded=0;" parent="1" vertex="1">
          <mxGeometry x="210" y="50" width="70" height="30" as="geometry" />
        </mxCell>
        <mxCell id="N3RhH1qTN14WOQrYuTi2-81" value="Vienna" style="html=1;shadow=0;dashed=0;shape=mxgraph.bootstrap.rrect;rSize=5;strokeColor=none;strokeWidth=1;fillColor=#6C767D;fontColor=#ffffff;whiteSpace=wrap;align=right;verticalAlign=middle;fontStyle=0;fontSize=14;spacingRight=20;" parent="1" vertex="1">
          <mxGeometry x="210" y="74.5" width="120" height="29" as="geometry" />
        </mxCell>
        <mxCell id="N3RhH1qTN14WOQrYuTi2-82" value="" style="shape=triangle;direction=south;fillColor=#ffffff;strokeColor=none;perimeter=none;" parent="N3RhH1qTN14WOQrYuTi2-81" vertex="1">
          <mxGeometry x="1" y="0.5" width="10" height="5" relative="1" as="geometry">
            <mxPoint x="-17" y="-2.5" as="offset" />
          </mxGeometry>
        </mxCell>
        <mxCell id="N3RhH1qTN14WOQrYuTi2-83" value="Dep 3B" style="html=1;shadow=0;dashed=0;shape=mxgraph.bootstrap.rrect;rSize=5;strokeColor=none;strokeWidth=1;fillColor=#6C767D;fontColor=#ffffff;whiteSpace=wrap;align=right;verticalAlign=middle;fontStyle=0;fontSize=14;spacingRight=20;" parent="1" vertex="1">
          <mxGeometry x="210" y="134.5" width="120" height="29" as="geometry" />
        </mxCell>
        <mxCell id="N3RhH1qTN14WOQrYuTi2-84" value="" style="shape=triangle;direction=south;fillColor=#ffffff;strokeColor=none;perimeter=none;" parent="N3RhH1qTN14WOQrYuTi2-83" vertex="1">
          <mxGeometry x="1" y="0.5" width="10" height="5" relative="1" as="geometry">
            <mxPoint x="-17" y="-2.5" as="offset" />
          </mxGeometry>
        </mxCell>
        <mxCell id="N3RhH1qTN14WOQrYuTi2-85" value="Department" style="text;html=1;align=left;verticalAlign=middle;whiteSpace=wrap;rounded=0;" parent="1" vertex="1">
          <mxGeometry x="210" y="109.5" width="70" height="30" as="geometry" />
        </mxCell>
        <mxCell id="N3RhH1qTN14WOQrYuTi2-86" value="Asset Type" style="text;html=1;align=left;verticalAlign=middle;whiteSpace=wrap;rounded=0;" parent="1" vertex="1">
          <mxGeometry x="350" y="50" width="70" height="30" as="geometry" />
        </mxCell>
        <mxCell id="N3RhH1qTN14WOQrYuTi2-87" value="Any" style="html=1;shadow=0;dashed=0;shape=mxgraph.bootstrap.rrect;rSize=5;strokeColor=none;strokeWidth=1;fillColor=#6C767D;fontColor=#ffffff;whiteSpace=wrap;align=right;verticalAlign=middle;fontStyle=0;fontSize=14;spacingRight=20;" parent="1" vertex="1">
          <mxGeometry x="350" y="74.5" width="120" height="29" as="geometry" />
        </mxCell>
        <mxCell id="N3RhH1qTN14WOQrYuTi2-88" value="" style="shape=triangle;direction=south;fillColor=#ffffff;strokeColor=none;perimeter=none;" parent="N3RhH1qTN14WOQrYuTi2-87" vertex="1">
          <mxGeometry x="1" y="0.5" width="10" height="5" relative="1" as="geometry">
            <mxPoint x="-17" y="-2.5" as="offset" />
          </mxGeometry>
        </mxCell>
      </root>
    </mxGraphModel>
  </diagram>
</mxfile>
